HIERARCHY
ROOT Root
{
  OFFSET 0.0 0.0 0.0
  CHANNELS 6 Xposition Yposition Zposition Zrotation Yrotation Xrotation
  JOINT Hips
  {
    OFFSET 0.0 100.0 0.0
    CHANNELS 6 Xposition Yposition Zposition Zrotation Yrotation Xrotation
    JOINT Spine1
    {
      OFFSET -0.013727 5.003763 -0.053727
      CHANNELS 3 Zrotation Yrotation Xrotation
      JOINT Spine2
      {
        OFFSET -0.0 7.125301 -0.029825
        CHANNELS 3 Zrotation Yrotation Xrotation
        JOINT Chest
        {
          OFFSET -1e-06 7.550063 -0.815971
          CHANNELS 3 Zrotation Yrotation Xrotation
          JOINT Neck1
          {
            OFFSET -0.181677 26.311295 -0.553348
            CHANNELS 3 Zrotation Yrotation Xrotation
            JOINT Neck2
            {
              OFFSET -3e-06 7.709397 2.302585
              CHANNELS 3 Zrotation Yrotation Xrotation
              JOINT Head
              {
                OFFSET -5e-06 6.128916 1.953709
                CHANNELS 3 Zrotation Yrotation Xrotation
                JOINT HeadEnd
                {
                  OFFSET 0.003598 16.065403 -1.835379
                  CHANNELS 3 Zrotation Yrotation Xrotation
                }
                JOINT Jaw
                {
                  OFFSET 0.002637 0.475592 3.094941
                  CHANNELS 3 Zrotation Yrotation Xrotation
                }
                JOINT LeftEye
                {
                  OFFSET 3.206381 5.380205 7.586883
                  CHANNELS 3 Zrotation Yrotation Xrotation
                }
                JOINT RightEye
                {
                  OFFSET -3.22244 5.361869 7.558234
                  CHANNELS 3 Zrotation Yrotation Xrotation
                }
              }
            }
          }
          JOINT LeftShoulder
          {
            OFFSET 1.621652 23.237164 5.113413
            CHANNELS 3 Zrotation Yrotation Xrotation
            JOINT LeftArm
            {
              OFFSET 14.919846 2e-06 -5.502326
              CHANNELS 3 Zrotation Yrotation Xrotation
              JOINT LeftForeArm
              {
                OFFSET 28.739307 0.0 -0.002588
                CHANNELS 3 Zrotation Yrotation Xrotation
                JOINT LeftHand
                {
                  OFFSET 27.093981 -1e-06 0.002609
                  CHANNELS 3 Zrotation Yrotation Xrotation
                  JOINT LeftHandThumb1
                  {
                    OFFSET 2.276482 -1.392045 3.191413
                    CHANNELS 3 Zrotation Yrotation Xrotation
                    JOINT LeftHandThumb2
                    {
                      OFFSET 4.012836 -1.828127 1.641654
                      CHANNELS 3 Zrotation Yrotation Xrotation
                      JOINT LeftHandThumb3
                      {
                        OFFSET 2.798515 0.0 -3e-06
                        CHANNELS 3 Zrotation Yrotation Xrotation
                        JOINT LeftHandThumbEnd
                        {
                          OFFSET 3.180793 -4e-06 4e-06
                          CHANNELS 3 Zrotation Yrotation Xrotation
                        }
                      }
                    }
                  }
                  JOINT LeftHandIndex1
                  {
                    OFFSET 3.247555 -0.531998 2.296169
                    CHANNELS 3 Zrotation Yrotation Xrotation
                    JOINT LeftHandIndex2
                    {
                      OFFSET 6.364578 0.01206 0.1786
                      CHANNELS 3 Zrotation Yrotation Xrotation
                      JOINT LeftHandIndex3
                      {
                        OFFSET 3.662364 0.0 0.0
                        CHANNELS 3 Zrotation Yrotation Xrotation
                        JOINT LeftHandIndex4
                        {
                          OFFSET 2.329242 4e-06 4e-06
                          CHANNELS 3 Zrotation Yrotation Xrotation
                          JOINT LeftHandIndexEnd
                          {
                            OFFSET 2.759615 -0.180537 -0.113024
                            CHANNELS 3 Zrotation Yrotation Xrotation
                          }
                        }
                      }
                    }
                  }
                  JOINT LeftHandMiddle1
                  {
                    OFFSET 3.163495 0.240981 1.000332
                    CHANNELS 3 Zrotation Yrotation Xrotation
                    JOINT LeftHandMiddle2
                    {
                      OFFSET 6.19078 -0.259278 -1.002548
                      CHANNELS 3 Zrotation Yrotation Xrotation
                      JOINT LeftHandMiddle3
                      {
                        OFFSET 4.35652 -4e-06 -1e-06
                        CHANNELS 3 Zrotation Yrotation Xrotation
                        JOINT LeftHandMiddle4
                        {
                          OFFSET 2.996877 -8e-06 0.0
                          CHANNELS 3 Zrotation Yrotation Xrotation
                          JOINT LeftHandMiddleEnd
                          {
                            OFFSET 2.304287 -0.294569 -0.031741
                            CHANNELS 3 Zrotation Yrotation Xrotation
                          }
                        }
                      }
                    }
                  }
                  JOINT LeftHandRing1
                  {
                    OFFSET 2.882643 -0.053652 -0.322543
                    CHANNELS 3 Zrotation Yrotation Xrotation
                    JOINT LeftHandRing2
                    {
                      OFFSET 5.854541 -0.486202 -1.373841
                      CHANNELS 3 Zrotation Yrotation Xrotation
                      JOINT LeftHandRing3
                      {
                        OFFSET 4.350578 0.0 3e-06
                        CHANNELS 3 Zrotation Yrotation Xrotation
                        JOINT LeftHandRing4
                        {
                          OFFSET 2.651321 7e-06 2e-06
                          CHANNELS 3 Zrotation Yrotation Xrotation
                          JOINT LeftHandRingEnd
                          {
                            OFFSET 1.936105 0.077687 -7.1e-05
                            CHANNELS 3 Zrotation Yrotation Xrotation
                          }
                        }
                      }
                    }
                  }
                  JOINT LeftHandPinky1
                  {
                    OFFSET 2.8655 -0.310005 -1.600378
                    CHANNELS 3 Zrotation Yrotation Xrotation
                    JOINT LeftHandPinky2
                    {
                      OFFSET 5.087849 -1.331141 -1.77123
                      CHANNELS 3 Zrotation Yrotation Xrotation
                      JOINT LeftHandPinky3
                      {
                        OFFSET 3.070974 4e-06 0.0
                        CHANNELS 3 Zrotation Yrotation Xrotation
                        JOINT LeftHandPinky4
                        {
                          OFFSET 1.549672 0.0 1e-06
                          CHANNELS 3 Zrotation Yrotation Xrotation
                          JOINT LeftHandPinkyEnd
                          {
                            OFFSET 1.944893 -0.157802 0.057219
                            CHANNELS 3 Zrotation Yrotation Xrotation
                          }
                        }
                      }
                    }
                  }
                }
              }
            }
          }
          JOINT RightShoulder
          {
            OFFSET -1.380118 23.180309 5.214158
            CHANNELS 3 Zrotation Yrotation Xrotation
            JOINT RightArm
            {
              OFFSET -15.037196 1.2e-05 -5.545604
              CHANNELS 3 Zrotation Yrotation Xrotation
              JOINT RightForeArm
              {
                OFFSET -28.736639 2e-06 -0.002597
                CHANNELS 3 Zrotation Yrotation Xrotation
                JOINT RightHand
                {
                  OFFSET -27.133619 -0.0 0.002613
                  CHANNELS 3 Zrotation Yrotation Xrotation
                  JOINT RightHandThumb1
                  {
                    OFFSET -2.274032 -1.383988 3.163127
                    CHANNELS 3 Zrotation Yrotation Xrotation
                    JOINT RightHandThumb2
                    {
                      OFFSET -4.011429 -1.827466 1.640914
                      CHANNELS 3 Zrotation Yrotation Xrotation
                      JOINT RightHandThumb3
                      {
                        OFFSET -2.794935 -4e-06 -3e-06
                        CHANNELS 3 Zrotation Yrotation Xrotation
                        JOINT RightHandThumbEnd
                        {
                          OFFSET -3.183852 4e-06 1e-06
                          CHANNELS 3 Zrotation Yrotation Xrotation
                        }
                      }
                    }
                  }
                  JOINT RightHandIndex1
                  {
                    OFFSET -3.253266 -0.520057 2.282866
                    CHANNELS 3 Zrotation Yrotation Xrotation
                    JOINT RightHandIndex2
                    {
                      OFFSET -6.341917 0.012471 0.178266
                      CHANNELS 3 Zrotation Yrotation Xrotation
                      JOINT RightHandIndex3
                      {
                        OFFSET -3.654871 -8e-06 -0.0
                        CHANNELS 3 Zrotation Yrotation Xrotation
                        JOINT RightHandIndex4
                        {
                          OFFSET -2.327586 0.0 1e-06
                          CHANNELS 3 Zrotation Yrotation Xrotation
                          JOINT RightHandIndexEnd
                          {
                            OFFSET -2.76179 -0.180656 -0.113078
                            CHANNELS 3 Zrotation Yrotation Xrotation
                          }
                        }
                      }
                    }
                  }
                  JOINT RightHandMiddle1
                  {
                    OFFSET -3.168106 0.246593 1.00103
                    CHANNELS 3 Zrotation Yrotation Xrotation
                    JOINT RightHandMiddle2
                    {
                      OFFSET -6.180828 -0.258836 -1.000895
                      CHANNELS 3 Zrotation Yrotation Xrotation
                      JOINT RightHandMiddle3
                      {
                        OFFSET -4.348901 0.0 -0.0
                        CHANNELS 3 Zrotation Yrotation Xrotation
                        JOINT RightHandMiddle4
                        {
                          OFFSET -3.00024 -4e-06 -2e-06
                          CHANNELS 3 Zrotation Yrotation Xrotation
                          JOINT RightHandMiddleEnd
                          {
                            OFFSET -2.30252 -0.29437 -0.031706
                            CHANNELS 3 Zrotation Yrotation Xrotation
                          }
                        }
                      }
                    }
                  }
                  JOINT RightHandRing1
                  {
                    OFFSET -2.88569 -0.067952 -0.308858
                    CHANNELS 3 Zrotation Yrotation Xrotation
                    JOINT RightHandRing2
                    {
                      OFFSET -5.854198 -0.48613 -1.373731
                      CHANNELS 3 Zrotation Yrotation Xrotation
                      JOINT RightHandRing3
                      {
                        OFFSET -4.33881 -4e-06 -0.0
                        CHANNELS 3 Zrotation Yrotation Xrotation
                        JOINT RightHandRing4
                        {
                          OFFSET -2.654903 -4e-06 4e-06
                          CHANNELS 3 Zrotation Yrotation Xrotation
                          JOINT RightHandRingEnd
                          {
                            OFFSET -1.933568 0.077527 -5.2e-05
                            CHANNELS 3 Zrotation Yrotation Xrotation
                          }
                        }
                      }
                    }
                  }
                  JOINT RightHandPinky1
                  {
                    OFFSET -2.866425 -0.342796 -1.584145
                    CHANNELS 3 Zrotation Yrotation Xrotation
                    JOINT RightHandPinky2
                    {
                      OFFSET -5.091371 -1.332055 -1.772385
                      CHANNELS 3 Zrotation Yrotation Xrotation
                      JOINT RightHandPinky3
                      {
                        OFFSET -3.062664 -4e-06 1e-06
                        CHANNELS 3 Zrotation Yrotation Xrotation
                        JOINT RightHandPinky4
                        {
                          OFFSET -1.546529 4e-06 -2e-06
                          CHANNELS 3 Zrotation Yrotation Xrotation
                          JOINT RightHandPinkyEnd
                          {
                            OFFSET -1.945119 -0.157718 0.057211
                            CHANNELS 3 Zrotation Yrotation Xrotation
                          }
                        }
                      }
                    }
                  }
                }
              }
            }
          }
        }
      }
    }
    JOINT LeftLeg
    {
      OFFSET 10.043214 -8.434526 2.595655
      CHANNELS 3 Zrotation Yrotation Xrotation
      JOINT LeftShin
      {
        OFFSET -1e-06 -43.221752 -0.802913
        CHANNELS 3 Zrotation Yrotation Xrotation
        JOINT LeftFoot
        {
          OFFSET 1e-06 -42.155094 -3.481523
          CHANNELS 3 Zrotation Yrotation Xrotation
          JOINT LeftToeBase
          {
            OFFSET 0.0 -5.059472 13.231529
            CHANNELS 3 Zrotation Yrotation Xrotation
            JOINT LeftToeEnd
            {
              OFFSET -0.009607 -1.647619 6.513017
              CHANNELS 3 Zrotation Yrotation Xrotation
            }
          }
        }
      }
    }
    JOINT RightLeg
    {
      OFFSET -10.047278 -8.29526 2.620317
      CHANNELS 3 Zrotation Yrotation Xrotation
      JOINT RightShin
      {
        OFFSET 1e-06 -43.362206 -0.805556
        CHANNELS 3 Zrotation Yrotation Xrotation
        JOINT RightFoot
        {
          OFFSET 2e-06 -42.117393 -3.478398
          CHANNELS 3 Zrotation Yrotation Xrotation
          JOINT RightToeBase
          {
            OFFSET -0.0 -5.079609 13.284196
            CHANNELS 3 Zrotation Yrotation Xrotation
            JOINT RightToeEnd
            {
              OFFSET 0.009532 -1.634378 6.460591
              CHANNELS 3 Zrotation Yrotation Xrotation
            }
          }
        }
      }
    }
  }
}
MOTION
Frames: 4
Frame Time: 0.03333333333333333
0.0 0.0 0.0 0.0 -0.0 0.0 -14.113519 97.211502 332.553253 -1.779812 -2.253732 -1.013517 3.576863 0.953116 -2.478626 0.308697 4.854701 -5.905838 -1.590618 3.927693 10.670989 -7.283895 3.525672 -7.559142 -0.881205 -1.769992 -3.515283 0.924943 -5.460028 -7.002977 7.7e-05 -2.3e-05 7e-06 0.038425 0.056289 0.019968 0.697616 -3.680388 -10.571816 -0.638034 3.789037 -10.544801 -20.732033 7.035417 17.238956 -56.583321 7.848145 51.953491 0.755942 -28.844467 -0.16748 5.074367 4.807291 -4.618884 -5.882108 9.861287 0.702592 -10.936877 -0.360576 7.156206 -0.0 8.774828 -2e-06 -15.955498 17.772312 5.981023 -1.844033 2.498505 -2.507279 -10.163604 4.678946 4.621109 -20.97603 -2e-06 7e-06 -21.226292 2.4517 -3.593999 0.0 -6e-06 -1e-06 -1.362682 2.240798 -0.746323 -21.334925 0.58491 3.008325 -13.821221 -2e-06 5e-06 -23.88718 -0.249077 -0.839481 -60.203339 2.604151 -1.26024 -0.294025 1.679687 0.833256 -14.218215 0.093215 1.300581 -34.212063 -0.287561 0.967175 -20.033218 0.964538 1.212845 0.0 0.0 0.0 -3.44039 0.788234 0.501656 -15.928192 -3.167309 2.99971 -6.338828 -1e-06 1e-06 -18.123451 3.648184 -4.905669 -4e-06 1e-06 -3e-06 9.959729 17.236225 17.323156 28.815664 28.004469 5.020093 2.430483 43.702385 0.889848 -12.556439 -2.228825 1.698716 2.243543 -5.255039 -3.180161 14.282896 -0.826596 6.952507 -0.0 -12.690609 2e-06 16.525124 -17.714231 2.170005 1.665668 -1.955922 -2.878302 4.727801 -4.170589 4.993928 11.02053 3e-06 -3e-06 12.109057 -3.735717 -2.866786 -1e-06 -0.0 -0.0 1.291986 -1.92855 -1.498091 14.800131 0.567468 3.865609 14.242574 -1.341735 -6.660663 19.631973 0.143925 -0.648247 50.167953 -1.301755 -6.294559 0.353028 -1.511151 -0.03194 20.222801 3.684309 2.316631 18.787277 4e-06 -1e-06 10.751632 -0.479869 1.397906 -1e-06 -0.0 -0.0 3.273808 0.305947 -0.580111 21.486818 11.830379 2.266132 8.162928 2e-06 -0.0 18.399088 -3.798989 -4.940578 3e-06 -1e-06 -1e-06 -1.231125 9.242572 -23.992702 0.019803 0.223054 0.772187 -6.532326 6.400842 4.821291 1.535496 -2.077974 -4.119089 0.0 0.0 3e-06 4.729477 -4.70366 11.916182 -0.065549 -0.123395 3.28067 0.633214 -5.346983 -14.783403 -1.419606 0.915682 -0.466926 0.0 -0.0 -1e-06 
0.0 0.0 0.0 0.0 -0.0 0.0 -13.987468 96.580048 335.900391 -1.381462 -3.232068 0.15542 3.48379 0.963834 -2.896534 0.309239 4.931639 -5.967282 -1.693667 4.224482 10.527397 -8.15975 3.577018 -8.573522 -0.78501 -1.569022 -3.525378 0.824369 -5.087502 -6.492332 7.7e-05 -2.3e-05 7e-06 0.029768 0.056514 0.021408 0.678614 -3.667308 -10.509366 -0.638598 3.776894 -10.472028 -21.658129 7.346168 16.810869 -56.633766 8.278123 51.623482 0.658932 -28.889952 -0.088967 4.311859 4.786505 -4.7232 -5.882114 9.861295 0.702587 -10.936883 -0.360577 7.15621 -1e-06 8.774833 -2e-06 -15.941565 17.743977 5.896566 -1.844035 2.498507 -2.507279 -10.163614 4.678949 4.62111 -20.976051 -2e-06 2e-06 -21.226315 2.4517 -3.594004 0.0 -5e-06 -0.0 -1.362683 2.2408 -0.746325 -21.334942 0.584911 3.008324 -13.821232 -2e-06 2e-06 -23.887203 -0.24908 -0.839485 -60.190399 2.575146 -1.413714 -0.294025 1.679689 0.833254 -14.218227 0.093216 1.300581 -34.212097 -0.287563 0.967168 -20.033241 0.964535 1.212844 0.0 0.0 0.0 -3.440392 0.788234 0.501657 -15.928205 -3.167312 2.999709 -6.338835 -1e-06 -1e-06 -18.123474 3.648184 -4.905678 -5e-06 3e-06 -1e-06 9.834496 17.508907 17.189621 28.227455 27.996759 4.627321 2.898458 44.871777 1.012355 -11.732635 -2.145035 1.951643 2.243545 -5.255039 -3.180159 14.282904 -0.826597 6.952505 -1e-06 -12.690609 1e-06 16.33774 -17.804832 2.242733 1.665667 -1.955922 -2.878299 4.727805 -4.17059 4.993926 11.020537 2e-06 -2e-06 12.109062 -3.735719 -2.866784 -1e-06 0.0 0.0 1.291986 -1.92855 -1.498089 14.800142 0.567465 3.865608 14.242589 -1.341737 -6.660662 19.631985 0.143924 -0.648247 49.969315 -1.409018 -6.380887 0.353029 -1.51115 -0.03194 20.222805 3.684308 2.31663 18.787292 3e-06 -2e-06 10.751637 -0.47987 1.397905 -1e-06 -0.0 0.0 3.273809 0.305947 -0.58011 21.486834 11.830376 2.266133 8.162937 1e-06 -2e-06 18.399099 -3.798986 -4.94058 3e-06 -1e-06 -0.0 -3.527617 10.939063 -25.829655 -0.042889 0.130292 -5.519516 -7.380569 7.597158 3.537512 1.405323 -2.162721 -4.318878 0.0 0.0 3e-06 3.874879 -4.481606 13.46085 -0.039865 -0.19961 2.061657 1.508224 -4.429682 -16.069304 -1.405983 0.811562 -0.837553 -0.0 -0.0 -1e-06 
0.0 0.0 0.0 0.0 -0.0 0.0 -13.860683 95.873344 339.27301 -1.247104 -4.29257 1.023369 3.468773 1.081716 -3.007425 0.283508 4.977523 -6.024825 -1.730622 4.245662 10.369493 -8.680164 3.633979 -9.354425 -0.75286 -1.550051 -3.425205 0.663564 -4.541612 -6.825484 7.7e-05 -2.2e-05 5e-06 0.052254 0.125178 0.020505 0.722782 -3.591364 -10.476571 -0.639119 3.840021 -10.44412 -22.013004 7.450967 16.599525 -57.01083 8.058202 50.284828 0.735013 -29.054615 -0.110296 4.030056 4.843035 -4.362714 -5.882106 9.861286 0.702593 -10.936875 -0.360576 7.156208 0.0 8.774825 -3e-06 -16.051226 17.532576 5.692304 -1.844032 2.498505 -2.507277 -10.163603 4.678946 4.621112 -20.976027 -2e-06 5e-06 -21.226286 2.451698 -3.593999 1e-06 -5e-06 -0.0 -1.362682 2.240798 -0.746323 -21.334917 0.584909 3.008327 -13.821216 -0.0 4e-06 -23.887177 -0.249077 -0.83948 -60.237057 2.488039 -1.605476 -0.294024 1.679688 0.833257 -14.218212 0.093216 1.300583 -34.212063 -0.287561 0.967175 -20.033218 0.96454 1.212845 0.0 0.0 0.0 -3.440389 0.788233 0.501658 -15.928189 -3.16731 2.99971 -6.338828 -2e-06 2e-06 -18.123447 3.648185 -4.905669 -5e-06 1e-06 -2e-06 9.377761 17.702782 17.2213 28.618408 28.152744 5.630065 2.985723 45.706276 1.252367 -10.266795 -2.477093 1.976167 2.243545 -5.255038 -3.18016 14.282896 -0.826597 6.952506 -2e-06 -12.690607 3e-06 16.494869 -17.946257 2.161996 1.665668 -1.955922 -2.8783 4.727801 -4.170588 4.993927 11.020531 3e-06 -2e-06 12.109056 -3.735716 -2.866785 0.0 -0.0 -2e-06 1.291986 -1.92855 -1.49809 14.800136 0.567467 3.865608 14.242579 -1.341737 -6.66066 19.631973 0.143925 -0.648245 49.971565 -1.574552 -6.466174 0.35303 -1.511151 -0.03194 20.222799 3.684309 2.316631 18.787279 4e-06 0.0 10.751633 -0.479869 1.397906 -1e-06 -1e-06 -0.0 3.273808 0.305946 -0.58011 21.48682 11.830378 2.266132 8.16293 -1e-06 -1e-06 18.399088 -3.798988 -4.940577 2e-06 -0.0 -1e-06 -5.480914 13.023667 -28.016314 -0.058127 0.144233 -6.077408 -7.67621 9.196911 2.365637 1.365523 -2.166246 -4.361723 -0.0 1e-06 1e-06 3.192704 -4.316566 14.892647 -0.060743 -0.222563 1.73153 2.39739 -3.511072 -17.186018 -1.404187 0.749611 -1.267823 0.0 -0.0 -1e-06 
0.0 0.0 0.0 0.0 -0.0 0.0 -13.684392 95.317307 342.839417 -1.042893 -5.31572 1.593505 3.295188 1.199926 -3.240689 0.252679 5.038526 -6.10311 -1.840479 4.045772 10.272797 -8.84804 3.809189 -9.641028 -0.783753 -1.418256 -3.389878 0.621719 -4.126967 -7.100777 7.7e-05 -2.3e-05 5e-06 0.063364 0.140074 0.017957 0.742611 -3.578186 -10.483 -0.63624 3.85697 -10.451236 -22.124023 7.549668 16.382938 -57.106358 7.420644 48.287506 0.766017 -29.167318 -0.179275 3.963036 5.034688 -3.562585 -5.882113 9.861292 0.702589 -10.93688 -0.360573 7.156209 -1e-06 8.77483 -2e-06 -16.155571 17.542383 5.675724 -1.844034 2.498506 -2.507277 -10.163611 4.678948 4.621111 -20.976044 1e-06 3e-06 -21.226307 2.4517 -3.594005 1e-06 -4e-06 -0.0 -1.362683 2.2408 -0.746324 -21.334934 0.584912 3.008322 -13.821227 -1e-06 1e-06 -23.887197 -0.249077 -0.839486 -60.232811 2.470614 -1.656114 -0.294026 1.679688 0.833254 -14.218224 0.093217 1.300581 -34.212082 -0.287562 0.967167 -20.033232 0.964539 1.212842 0.0 -1e-06 -0.0 -3.440391 0.788234 0.501655 -15.928201 -3.167309 2.99971 -6.338832 -0.0 -1e-06 -18.123466 3.648185 -4.905675 -6e-06 2e-06 -1e-06 9.087765 17.748056 17.44383 30.208391 28.342541 8.666555 2.303375 45.464367 0.870233 -8.626511 -2.967191 1.393177 2.243543 -5.255037 -3.180158 14.282899 -0.826597 6.952503 -1e-06 -12.690605 2e-06 16.762177 -18.0172 2.105293 1.665667 -1.955922 -2.878299 4.7278 -4.170588 4.993926 11.020531 2e-06 -1e-06 12.109056 -3.735716 -2.866785 1e-06 -0.0 1e-06 1.291987 -1.92855 -1.498089 14.800136 0.567466 3.865608 14.242579 -1.341736 -6.660661 19.631973 0.143923 -0.648248 49.975342 -1.555432 -6.582187 0.353028 -1.511151 -0.03194 20.222801 3.684309 2.316629 18.787283 4e-06 -3e-06 10.751633 -0.479871 1.397905 0.0 -1e-06 0.0 3.273809 0.305946 -0.58011 21.486818 11.830374 2.266131 8.16293 1e-06 -1e-06 18.399092 -3.798985 -4.940578 3e-06 -1e-06 -1e-06 -6.623047 14.52334 -28.648775 -0.07654 0.26059 -4.106824 -7.07881 10.207599 1.892008 1.469028 -2.125879 -4.78875 1e-06 1e-06 1e-06 2.305168 -4.213925 16.614578 -0.07467 -0.157567 1.526908 3.360776 -2.660167 -17.087107 -1.398886 0.812749 -1.993753 -0.0 -0.0 -1e-06 
